<svg width="617" height="391" viewBox="0 0 617 391" fill="none" xmlns="http://www.w3.org/2000/svg">
<line x1="4.37114e-08" y1="346.5" x2="617" y2="346.5" stroke="black"/>
<path d="M107 33.8511C107 20.5962 117.745 9.85107 131 9.85107H485C498.255 9.85107 509 20.5962 509 33.8511V289.851C509 303.106 498.255 313.851 485 313.851H131C117.745 313.851 107 303.106 107 289.851V33.8511Z" fill="#25311C"/>
<path fill-rule="evenodd" clip-rule="evenodd" d="M485 10.6011H131C118.159 10.6011 107.75 21.0105 107.75 33.8511V289.851C107.75 302.692 118.159 313.101 131 313.101H485C497.841 313.101 508.25 302.692 508.25 289.851V33.8511C508.25 21.0105 497.841 10.6011 485 10.6011ZM131 9.85107C117.745 9.85107 107 20.5962 107 33.8511V289.851C107 303.106 117.745 313.851 131 313.851H485C498.255 313.851 509 303.106 509 289.851V33.8511C509 20.5962 498.255 9.85107 485 9.85107H131Z" fill="#25311C"/>
<path d="M117 33.8511C117 20.5962 127.745 9.85107 141 9.85107H495C508.255 9.85107 519 20.5962 519 33.8511V289.851C519 303.106 508.255 313.851 495 313.851H141C127.745 313.851 117 303.106 117 289.851V33.8511Z" fill="#F4F6F5"/>
<path fill-rule="evenodd" clip-rule="evenodd" d="M495 10.6011H141C128.159 10.6011 117.75 21.0105 117.75 33.8511V289.851C117.75 302.692 128.159 313.101 141 313.101H495C507.841 313.101 518.25 302.692 518.25 289.851V33.8511C518.25 21.0105 507.841 10.6011 495 10.6011ZM141 9.85107C127.745 9.85107 117 20.5962 117 33.8511V289.851C117 303.106 127.745 313.851 141 313.851H495C508.255 313.851 519 303.106 519 289.851V33.8511C519 20.5962 508.255 9.85107 495 9.85107H141Z" fill="#25311C"/>
<path fill-rule="evenodd" clip-rule="evenodd" d="M117 281.851L149 281.851L149 313.851L141 313.851C127.745 313.851 117 303.106 117 289.851L117 281.851Z" fill="#CAFFA0"/>
<path fill-rule="evenodd" clip-rule="evenodd" d="M148.25 282.601L117.75 282.601L117.75 289.851C117.75 302.692 128.159 313.101 141 313.101L148.25 313.101L148.25 282.601ZM117 281.851L117 289.851C117 303.106 127.745 313.851 141 313.851L149 313.851L149 281.851L117 281.851Z" fill="#25311C"/>
<path fill-rule="evenodd" clip-rule="evenodd" d="M519 41.8511L487 41.8511L487 9.85107L495 9.85107C508.255 9.85107 519 20.5962 519 33.8511L519 41.8511Z" fill="#CAFFA0"/>
<path fill-rule="evenodd" clip-rule="evenodd" d="M487.75 41.1011L518.25 41.1011L518.25 33.8511C518.25 21.0105 507.841 10.6011 495 10.6011L487.75 10.6011L487.75 41.1011ZM519 41.8511L519 33.8511C519 20.5962 508.255 9.85107 495 9.85107L487 9.85107L487 41.8511L519 41.8511Z" fill="#25311C"/>
<path fill-rule="evenodd" clip-rule="evenodd" d="M149 9.85107V41.8511H117V33.8511C117 20.5962 127.745 9.85107 141 9.85107H149Z" fill="#CAFFA0"/>
<path fill-rule="evenodd" clip-rule="evenodd" d="M148.25 41.1011V10.6011H141C128.159 10.6011 117.75 21.0105 117.75 33.8511V41.1011H148.25ZM149 9.85107H141C127.745 9.85107 117 20.5962 117 33.8511V41.8511H149V9.85107Z" fill="#25311C"/>
<path fill-rule="evenodd" clip-rule="evenodd" d="M487 313.851L487 281.851L519 281.851L519 289.851C519 303.106 508.255 313.851 495 313.851L487 313.851Z" fill="#CAFFA0"/>
<path fill-rule="evenodd" clip-rule="evenodd" d="M487.75 282.601L487.75 313.101L495 313.101C507.841 313.101 518.25 302.692 518.25 289.851L518.25 282.601L487.75 282.601ZM487 313.851L495 313.851C508.255 313.851 519 303.106 519 289.851L519 281.851L487 281.851L487 313.851Z" fill="#25311C"/>
<path d="M122 38.8511C122 25.5962 132.745 14.8511 146 14.8511H490C503.255 14.8511 514 25.5962 514 38.8511V284.851C514 298.106 503.255 308.851 490 308.851H146C132.745 308.851 122 298.106 122 284.851V38.8511Z" fill="white"/>
<path fill-rule="evenodd" clip-rule="evenodd" d="M490 15.6011H146C133.159 15.6011 122.75 26.0105 122.75 38.8511V284.851C122.75 297.692 133.159 308.101 146 308.101H490C502.841 308.101 513.25 297.692 513.25 284.851V38.8511C513.25 26.0105 502.841 15.6011 490 15.6011ZM146 14.8511C132.745 14.8511 122 25.5962 122 38.8511V284.851C122 298.106 132.745 308.851 146 308.851H490C503.255 308.851 514 298.106 514 284.851V38.8511C514 25.5962 503.255 14.8511 490 14.8511H146Z" fill="#25311C"/>
<g clip-path="url(#clip0_6415_28103)">
<rect x="122" y="14.8511" width="393" height="294" rx="24" fill="white"/>
<path d="M122 38.8511C122 25.5962 132.745 14.8511 146 14.8511H491C504.255 14.8511 515 25.5962 515 38.8511V284.851C515 298.106 504.255 308.851 491 308.851H146C132.745 308.851 122 298.106 122 284.851V38.8511Z" fill="white"/>
<path fill-rule="evenodd" clip-rule="evenodd" d="M491 15.6011H146C133.159 15.6011 122.75 26.0105 122.75 38.8511V284.851C122.75 297.692 133.159 308.101 146 308.101H491C503.841 308.101 514.25 297.692 514.25 284.851V38.8511C514.25 26.0105 503.841 15.6011 491 15.6011ZM146 14.8511C132.745 14.8511 122 25.5962 122 38.8511V284.851C122 298.106 132.745 308.851 146 308.851H491C504.255 308.851 515 298.106 515 284.851V38.8511C515 25.5962 504.255 14.8511 491 14.8511H146Z" fill="#25311C"/>
<g opacity="0.4">
<path fill-rule="evenodd" clip-rule="evenodd" d="M515.002 172.051H103V171.851H515.002V172.051Z" fill="black" fill-opacity="0.4"/>
<path fill-rule="evenodd" clip-rule="evenodd" d="M515.002 92.0511H103V91.8511H515.002V92.0511Z" fill="black" fill-opacity="0.4"/>
<path fill-rule="evenodd" clip-rule="evenodd" d="M515.002 252.051H103V251.851H515.002V252.051Z" fill="black" fill-opacity="0.4"/>
<path fill-rule="evenodd" clip-rule="evenodd" d="M515.002 52.0511H103V51.8511H515.002V52.0511Z" fill="black" fill-opacity="0.4"/>
<path fill-rule="evenodd" clip-rule="evenodd" d="M515.002 212.051H103V211.851H515.002V212.051Z" fill="black" fill-opacity="0.4"/>
<path fill-rule="evenodd" clip-rule="evenodd" d="M515.002 132.051H103V131.851H515.002V132.051Z" fill="black" fill-opacity="0.4"/>
<path fill-rule="evenodd" clip-rule="evenodd" d="M515.002 292.051H103V291.851H515.002V292.051Z" fill="black" fill-opacity="0.4"/>
<path fill-rule="evenodd" clip-rule="evenodd" d="M515.002 22.0511H103V21.8511H515.002V22.0511Z" fill="black" fill-opacity="0.4"/>
<path fill-rule="evenodd" clip-rule="evenodd" d="M515.002 182.051H103V181.851H515.002V182.051Z" fill="black" fill-opacity="0.4"/>
<path fill-rule="evenodd" clip-rule="evenodd" d="M515.002 102.051H103V101.851H515.002V102.051Z" fill="black" fill-opacity="0.4"/>
<path fill-rule="evenodd" clip-rule="evenodd" d="M515.002 262.051H103V261.851H515.002V262.051Z" fill="black" fill-opacity="0.4"/>
<path fill-rule="evenodd" clip-rule="evenodd" d="M515.002 62.0511H103V61.8511H515.002V62.0511Z" fill="black" fill-opacity="0.4"/>
<path fill-rule="evenodd" clip-rule="evenodd" d="M515.002 222.051H103V221.851H515.002V222.051Z" fill="black" fill-opacity="0.4"/>
<path fill-rule="evenodd" clip-rule="evenodd" d="M515.002 142.051H103V141.851H515.002V142.051Z" fill="black" fill-opacity="0.4"/>
<path fill-rule="evenodd" clip-rule="evenodd" d="M515.002 302.051H103V301.851H515.002V302.051Z" fill="black" fill-opacity="0.4"/>
<path fill-rule="evenodd" clip-rule="evenodd" d="M515.002 32.0511H103V31.8511H515.002V32.0511Z" fill="black" fill-opacity="0.4"/>
<path fill-rule="evenodd" clip-rule="evenodd" d="M515.002 192.051H103V191.851H515.002V192.051Z" fill="black" fill-opacity="0.4"/>
<path fill-rule="evenodd" clip-rule="evenodd" d="M515.002 112.051H103V111.851H515.002V112.051Z" fill="black" fill-opacity="0.4"/>
<path fill-rule="evenodd" clip-rule="evenodd" d="M515.002 272.051H103V271.851H515.002V272.051Z" fill="black" fill-opacity="0.4"/>
<path fill-rule="evenodd" clip-rule="evenodd" d="M515.002 72.0511H103V71.8511H515.002V72.0511Z" fill="black" fill-opacity="0.4"/>
<path fill-rule="evenodd" clip-rule="evenodd" d="M515.002 232.051H103V231.851H515.002V232.051Z" fill="black" fill-opacity="0.4"/>
<path fill-rule="evenodd" clip-rule="evenodd" d="M515.002 152.051H103V151.851H515.002V152.051Z" fill="black" fill-opacity="0.4"/>
<path fill-rule="evenodd" clip-rule="evenodd" d="M515.002 42.0511H103V41.8511H515.002V42.0511Z" fill="black" fill-opacity="0.4"/>
<path fill-rule="evenodd" clip-rule="evenodd" d="M515.002 202.051H103V201.851H515.002V202.051Z" fill="black" fill-opacity="0.4"/>
<path fill-rule="evenodd" clip-rule="evenodd" d="M515.002 122.051H103V121.851H515.002V122.051Z" fill="black" fill-opacity="0.4"/>
<path fill-rule="evenodd" clip-rule="evenodd" d="M515.002 282.051H103V281.851H515.002V282.051Z" fill="black" fill-opacity="0.4"/>
<path fill-rule="evenodd" clip-rule="evenodd" d="M515.002 82.0511H103V81.8511H515.002V82.0511Z" fill="black" fill-opacity="0.4"/>
<path fill-rule="evenodd" clip-rule="evenodd" d="M515.002 242.051H103V241.851H515.002V242.051Z" fill="black" fill-opacity="0.4"/>
<path fill-rule="evenodd" clip-rule="evenodd" d="M515.002 162.051H103V161.851H515.002V162.051Z" fill="black" fill-opacity="0.4"/>
</g>
<g opacity="0.4">
<path fill-rule="evenodd" clip-rule="evenodd" d="M402.995 312.051L402.995 12.0513L403.195 12.0513L403.195 312.051L402.995 312.051Z" fill="black" fill-opacity="0.4"/>
<path fill-rule="evenodd" clip-rule="evenodd" d="M242.995 312.051L242.995 12.0513L243.195 12.0513L243.195 312.051L242.995 312.051Z" fill="black" fill-opacity="0.4"/>
<path fill-rule="evenodd" clip-rule="evenodd" d="M322.987 312.051L322.987 12.0513L323.188 12.0513L323.187 312.051L322.987 312.051Z" fill="black" fill-opacity="0.4"/>
<path fill-rule="evenodd" clip-rule="evenodd" d="M162.987 312.051L162.987 12.0513L163.188 12.0513L163.187 312.051L162.987 312.051Z" fill="black" fill-opacity="0.4"/>
<path fill-rule="evenodd" clip-rule="evenodd" d="M362.995 312.051L362.995 12.0513L363.195 12.0513L363.195 312.051L362.995 312.051Z" fill="black" fill-opacity="0.4"/>
<path fill-rule="evenodd" clip-rule="evenodd" d="M202.995 312.051L202.995 12.0513L203.195 12.0513L203.195 312.051L202.995 312.051Z" fill="black" fill-opacity="0.4"/>
<path fill-rule="evenodd" clip-rule="evenodd" d="M282.995 312.051L282.995 12.0513L283.195 12.0513L283.195 312.051L282.995 312.051Z" fill="black" fill-opacity="0.4"/>
<path fill-rule="evenodd" clip-rule="evenodd" d="M122.995 312.051L122.995 12.0513L123.195 12.0513L123.195 312.051L122.995 312.051Z" fill="black" fill-opacity="0.4"/>
<path fill-rule="evenodd" clip-rule="evenodd" d="M392.995 312.051L392.995 12.0513L393.195 12.0513L393.195 312.051L392.995 312.051Z" fill="black" fill-opacity="0.4"/>
<path fill-rule="evenodd" clip-rule="evenodd" d="M232.995 312.051L232.995 12.0513L233.195 12.0513L233.195 312.051L232.995 312.051Z" fill="black" fill-opacity="0.4"/>
<path fill-rule="evenodd" clip-rule="evenodd" d="M312.995 312.051L312.995 12.0513L313.195 12.0513L313.195 312.051L312.995 312.051Z" fill="black" fill-opacity="0.4"/>
<path fill-rule="evenodd" clip-rule="evenodd" d="M152.995 312.051L152.995 12.0513L153.195 12.0513L153.195 312.051L152.995 312.051Z" fill="black" fill-opacity="0.4"/>
<path fill-rule="evenodd" clip-rule="evenodd" d="M352.995 312.051L352.995 12.0513L353.195 12.0513L353.195 312.051L352.995 312.051Z" fill="black" fill-opacity="0.4"/>
<path fill-rule="evenodd" clip-rule="evenodd" d="M192.995 312.051L192.995 12.0513L193.195 12.0513L193.195 312.051L192.995 312.051Z" fill="black" fill-opacity="0.4"/>
<path fill-rule="evenodd" clip-rule="evenodd" d="M272.995 312.051L272.995 12.0513L273.195 12.0513L273.195 312.051L272.995 312.051Z" fill="black" fill-opacity="0.4"/>
<path fill-rule="evenodd" clip-rule="evenodd" d="M382.995 312.051L382.995 12.0513L383.195 12.0513L383.195 312.051L382.995 312.051Z" fill="black" fill-opacity="0.4"/>
<path fill-rule="evenodd" clip-rule="evenodd" d="M222.995 312.051L222.995 12.0513L223.195 12.0513L223.195 312.051L222.995 312.051Z" fill="black" fill-opacity="0.4"/>
<path fill-rule="evenodd" clip-rule="evenodd" d="M302.995 312.051L302.995 12.0513L303.195 12.0513L303.195 312.051L302.995 312.051Z" fill="black" fill-opacity="0.4"/>
<path fill-rule="evenodd" clip-rule="evenodd" d="M142.995 312.051L142.995 12.0513L143.195 12.0513L143.195 312.051L142.995 312.051Z" fill="black" fill-opacity="0.4"/>
<path fill-rule="evenodd" clip-rule="evenodd" d="M342.995 312.051L342.995 12.0513L343.195 12.0513L343.195 312.051L342.995 312.051Z" fill="black" fill-opacity="0.4"/>
<path fill-rule="evenodd" clip-rule="evenodd" d="M182.987 312.051L182.987 12.0513L183.188 12.0513L183.187 312.051L182.987 312.051Z" fill="black" fill-opacity="0.4"/>
<path fill-rule="evenodd" clip-rule="evenodd" d="M262.995 312.051L262.995 12.0513L263.195 12.0513L263.195 312.051L262.995 312.051Z" fill="black" fill-opacity="0.4"/>
<path fill-rule="evenodd" clip-rule="evenodd" d="M372.995 312.051L372.995 12.0513L373.195 12.0513L373.195 312.051L372.995 312.051Z" fill="black" fill-opacity="0.4"/>
<path fill-rule="evenodd" clip-rule="evenodd" d="M212.995 312.051L212.995 12.0513L213.195 12.0513L213.195 312.051L212.995 312.051Z" fill="black" fill-opacity="0.4"/>
<path fill-rule="evenodd" clip-rule="evenodd" d="M292.995 312.051L292.995 12.0513L293.195 12.0513L293.195 312.051L292.995 312.051Z" fill="black" fill-opacity="0.4"/>
<path fill-rule="evenodd" clip-rule="evenodd" d="M132.995 312.051L132.995 12.0513L133.195 12.0513L133.195 312.051L132.995 312.051Z" fill="black" fill-opacity="0.4"/>
<path fill-rule="evenodd" clip-rule="evenodd" d="M332.995 312.051L332.995 12.0513L333.195 12.0513L333.195 312.051L332.995 312.051Z" fill="black" fill-opacity="0.4"/>
<path fill-rule="evenodd" clip-rule="evenodd" d="M172.995 312.051L172.995 12.0513L173.195 12.0513L173.195 312.051L172.995 312.051Z" fill="black" fill-opacity="0.4"/>
<path fill-rule="evenodd" clip-rule="evenodd" d="M252.987 312.051L252.987 12.0513L253.188 12.0513L253.187 312.051L252.987 312.051Z" fill="black" fill-opacity="0.4"/>
</g>
<path opacity="0.4" fill-rule="evenodd" clip-rule="evenodd" d="M472.995 312.051L472.995 12.0513L473.195 12.0513L473.195 312.051L472.995 312.051Z" fill="black" fill-opacity="0.4"/>
<path opacity="0.4" fill-rule="evenodd" clip-rule="evenodd" d="M512.995 312.051L512.995 12.0513L513.195 12.0513L513.195 312.051L512.995 312.051Z" fill="black" fill-opacity="0.4"/>
<path opacity="0.4" fill-rule="evenodd" clip-rule="evenodd" d="M432.995 312.051L432.995 12.0513L433.195 12.0513L433.195 312.051L432.995 312.051Z" fill="black" fill-opacity="0.4"/>
<path opacity="0.4" fill-rule="evenodd" clip-rule="evenodd" d="M462.995 312.051L462.995 12.0513L463.195 12.0513L463.195 312.051L462.995 312.051Z" fill="black" fill-opacity="0.4"/>
<path opacity="0.4" fill-rule="evenodd" clip-rule="evenodd" d="M502.995 312.051L502.995 12.0513L503.195 12.0513L503.195 312.051L502.995 312.051Z" fill="black" fill-opacity="0.4"/>
<path opacity="0.4" fill-rule="evenodd" clip-rule="evenodd" d="M422.995 312.051L422.995 12.0513L423.195 12.0513L423.195 312.051L422.995 312.051Z" fill="black" fill-opacity="0.4"/>
<path opacity="0.4" fill-rule="evenodd" clip-rule="evenodd" d="M452.995 312.051L452.995 12.0513L453.195 12.0513L453.195 312.051L452.995 312.051Z" fill="black" fill-opacity="0.4"/>
<path opacity="0.4" fill-rule="evenodd" clip-rule="evenodd" d="M492.995 312.051L492.995 12.0513L493.195 12.0513L493.195 312.051L492.995 312.051Z" fill="black" fill-opacity="0.4"/>
<path opacity="0.4" fill-rule="evenodd" clip-rule="evenodd" d="M412.995 312.051L412.995 12.0513L413.195 12.0513L413.195 312.051L412.995 312.051Z" fill="black" fill-opacity="0.4"/>
<path opacity="0.4" fill-rule="evenodd" clip-rule="evenodd" d="M442.995 312.051L442.995 12.0513L443.195 12.0513L443.195 312.051L442.995 312.051Z" fill="black" fill-opacity="0.4"/>
<path opacity="0.4" fill-rule="evenodd" clip-rule="evenodd" d="M482.995 312.051L482.995 12.0513L483.195 12.0513L483.195 312.051L482.995 312.051Z" fill="black" fill-opacity="0.4"/>
<g opacity="0.4">
<path fill-rule="evenodd" clip-rule="evenodd" d="M515.002 172.051H103V171.851H515.002V172.051Z" fill="black" fill-opacity="0.4"/>
<path fill-rule="evenodd" clip-rule="evenodd" d="M515.002 92.0511H103V91.8511H515.002V92.0511Z" fill="black" fill-opacity="0.4"/>
<path fill-rule="evenodd" clip-rule="evenodd" d="M515.002 252.051H103V251.851H515.002V252.051Z" fill="black" fill-opacity="0.4"/>
<path fill-rule="evenodd" clip-rule="evenodd" d="M515.002 52.0511H103V51.8511H515.002V52.0511Z" fill="black" fill-opacity="0.4"/>
<path fill-rule="evenodd" clip-rule="evenodd" d="M515.002 212.051H103V211.851H515.002V212.051Z" fill="black" fill-opacity="0.4"/>
<path fill-rule="evenodd" clip-rule="evenodd" d="M515.002 132.051H103V131.851H515.002V132.051Z" fill="black" fill-opacity="0.4"/>
<path fill-rule="evenodd" clip-rule="evenodd" d="M515.002 292.051H103V291.851H515.002V292.051Z" fill="black" fill-opacity="0.4"/>
<path fill-rule="evenodd" clip-rule="evenodd" d="M515.002 22.0511H103V21.8511H515.002V22.0511Z" fill="black" fill-opacity="0.4"/>
<path fill-rule="evenodd" clip-rule="evenodd" d="M515.002 182.051H103V181.851H515.002V182.051Z" fill="black" fill-opacity="0.4"/>
<path fill-rule="evenodd" clip-rule="evenodd" d="M515.002 102.051H103V101.851H515.002V102.051Z" fill="black" fill-opacity="0.4"/>
<path fill-rule="evenodd" clip-rule="evenodd" d="M515.002 262.051H103V261.851H515.002V262.051Z" fill="black" fill-opacity="0.4"/>
<path fill-rule="evenodd" clip-rule="evenodd" d="M515.002 62.0511H103V61.8511H515.002V62.0511Z" fill="black" fill-opacity="0.4"/>
<path fill-rule="evenodd" clip-rule="evenodd" d="M515.002 222.051H103V221.851H515.002V222.051Z" fill="black" fill-opacity="0.4"/>
<path fill-rule="evenodd" clip-rule="evenodd" d="M515.002 142.051H103V141.851H515.002V142.051Z" fill="black" fill-opacity="0.4"/>
<path fill-rule="evenodd" clip-rule="evenodd" d="M515.002 302.051H103V301.851H515.002V302.051Z" fill="black" fill-opacity="0.4"/>
<path fill-rule="evenodd" clip-rule="evenodd" d="M515.002 32.0511H103V31.8511H515.002V32.0511Z" fill="black" fill-opacity="0.4"/>
<path fill-rule="evenodd" clip-rule="evenodd" d="M515.002 192.051H103V191.851H515.002V192.051Z" fill="black" fill-opacity="0.4"/>
<path fill-rule="evenodd" clip-rule="evenodd" d="M515.002 112.051H103V111.851H515.002V112.051Z" fill="black" fill-opacity="0.4"/>
<path fill-rule="evenodd" clip-rule="evenodd" d="M515.002 272.051H103V271.851H515.002V272.051Z" fill="black" fill-opacity="0.4"/>
<path fill-rule="evenodd" clip-rule="evenodd" d="M515.002 72.0511H103V71.8511H515.002V72.0511Z" fill="black" fill-opacity="0.4"/>
<path fill-rule="evenodd" clip-rule="evenodd" d="M515.002 232.051H103V231.851H515.002V232.051Z" fill="black" fill-opacity="0.4"/>
<path fill-rule="evenodd" clip-rule="evenodd" d="M515.002 152.051H103V151.851H515.002V152.051Z" fill="black" fill-opacity="0.4"/>
<path fill-rule="evenodd" clip-rule="evenodd" d="M515.002 42.0511H103V41.8511H515.002V42.0511Z" fill="black" fill-opacity="0.4"/>
<path fill-rule="evenodd" clip-rule="evenodd" d="M515.002 202.051H103V201.851H515.002V202.051Z" fill="black" fill-opacity="0.4"/>
<path fill-rule="evenodd" clip-rule="evenodd" d="M515.002 122.051H103V121.851H515.002V122.051Z" fill="black" fill-opacity="0.4"/>
<path fill-rule="evenodd" clip-rule="evenodd" d="M515.002 282.051H103V281.851H515.002V282.051Z" fill="black" fill-opacity="0.4"/>
<path fill-rule="evenodd" clip-rule="evenodd" d="M515.002 82.0511H103V81.8511H515.002V82.0511Z" fill="black" fill-opacity="0.4"/>
<path fill-rule="evenodd" clip-rule="evenodd" d="M515.002 242.051H103V241.851H515.002V242.051Z" fill="black" fill-opacity="0.4"/>
<path fill-rule="evenodd" clip-rule="evenodd" d="M515.002 162.051H103V161.851H515.002V162.051Z" fill="black" fill-opacity="0.4"/>
</g>
<g opacity="0.4">
<path fill-rule="evenodd" clip-rule="evenodd" d="M402.995 312.051L402.995 12.0513L403.195 12.0513L403.195 312.051L402.995 312.051Z" fill="black" fill-opacity="0.4"/>
<path fill-rule="evenodd" clip-rule="evenodd" d="M242.995 312.051L242.995 12.0513L243.195 12.0513L243.195 312.051L242.995 312.051Z" fill="black" fill-opacity="0.4"/>
<path fill-rule="evenodd" clip-rule="evenodd" d="M322.987 312.051L322.987 12.0513L323.188 12.0513L323.187 312.051L322.987 312.051Z" fill="black" fill-opacity="0.4"/>
<path fill-rule="evenodd" clip-rule="evenodd" d="M162.987 312.051L162.987 12.0513L163.188 12.0513L163.187 312.051L162.987 312.051Z" fill="black" fill-opacity="0.4"/>
<path fill-rule="evenodd" clip-rule="evenodd" d="M362.995 312.051L362.995 12.0513L363.195 12.0513L363.195 312.051L362.995 312.051Z" fill="black" fill-opacity="0.4"/>
<path fill-rule="evenodd" clip-rule="evenodd" d="M202.995 312.051L202.995 12.0513L203.195 12.0513L203.195 312.051L202.995 312.051Z" fill="black" fill-opacity="0.4"/>
<path fill-rule="evenodd" clip-rule="evenodd" d="M282.995 312.051L282.995 12.0513L283.195 12.0513L283.195 312.051L282.995 312.051Z" fill="black" fill-opacity="0.4"/>
<path fill-rule="evenodd" clip-rule="evenodd" d="M122.995 312.051L122.995 12.0513L123.195 12.0513L123.195 312.051L122.995 312.051Z" fill="black" fill-opacity="0.4"/>
<path fill-rule="evenodd" clip-rule="evenodd" d="M392.995 312.051L392.995 12.0513L393.195 12.0513L393.195 312.051L392.995 312.051Z" fill="black" fill-opacity="0.4"/>
<path fill-rule="evenodd" clip-rule="evenodd" d="M232.995 312.051L232.995 12.0513L233.195 12.0513L233.195 312.051L232.995 312.051Z" fill="black" fill-opacity="0.4"/>
<path fill-rule="evenodd" clip-rule="evenodd" d="M312.995 312.051L312.995 12.0513L313.195 12.0513L313.195 312.051L312.995 312.051Z" fill="black" fill-opacity="0.4"/>
<path fill-rule="evenodd" clip-rule="evenodd" d="M152.995 312.051L152.995 12.0513L153.195 12.0513L153.195 312.051L152.995 312.051Z" fill="black" fill-opacity="0.4"/>
<path fill-rule="evenodd" clip-rule="evenodd" d="M352.995 312.051L352.995 12.0513L353.195 12.0513L353.195 312.051L352.995 312.051Z" fill="black" fill-opacity="0.4"/>
<path fill-rule="evenodd" clip-rule="evenodd" d="M192.995 312.051L192.995 12.0513L193.195 12.0513L193.195 312.051L192.995 312.051Z" fill="black" fill-opacity="0.4"/>
<path fill-rule="evenodd" clip-rule="evenodd" d="M272.995 312.051L272.995 12.0513L273.195 12.0513L273.195 312.051L272.995 312.051Z" fill="black" fill-opacity="0.4"/>
<path fill-rule="evenodd" clip-rule="evenodd" d="M382.995 312.051L382.995 12.0513L383.195 12.0513L383.195 312.051L382.995 312.051Z" fill="black" fill-opacity="0.4"/>
<path fill-rule="evenodd" clip-rule="evenodd" d="M222.995 312.051L222.995 12.0513L223.195 12.0513L223.195 312.051L222.995 312.051Z" fill="black" fill-opacity="0.4"/>
<path fill-rule="evenodd" clip-rule="evenodd" d="M302.995 312.051L302.995 12.0513L303.195 12.0513L303.195 312.051L302.995 312.051Z" fill="black" fill-opacity="0.4"/>
<path fill-rule="evenodd" clip-rule="evenodd" d="M142.995 312.051L142.995 12.0513L143.195 12.0513L143.195 312.051L142.995 312.051Z" fill="black" fill-opacity="0.4"/>
<path fill-rule="evenodd" clip-rule="evenodd" d="M342.995 312.051L342.995 12.0513L343.195 12.0513L343.195 312.051L342.995 312.051Z" fill="black" fill-opacity="0.4"/>
<path fill-rule="evenodd" clip-rule="evenodd" d="M182.987 312.051L182.987 12.0513L183.188 12.0513L183.187 312.051L182.987 312.051Z" fill="black" fill-opacity="0.4"/>
<path fill-rule="evenodd" clip-rule="evenodd" d="M262.995 312.051L262.995 12.0513L263.195 12.0513L263.195 312.051L262.995 312.051Z" fill="black" fill-opacity="0.4"/>
<path fill-rule="evenodd" clip-rule="evenodd" d="M372.995 312.051L372.995 12.0513L373.195 12.0513L373.195 312.051L372.995 312.051Z" fill="black" fill-opacity="0.4"/>
<path fill-rule="evenodd" clip-rule="evenodd" d="M212.995 312.051L212.995 12.0513L213.195 12.0513L213.195 312.051L212.995 312.051Z" fill="black" fill-opacity="0.4"/>
<path fill-rule="evenodd" clip-rule="evenodd" d="M292.995 312.051L292.995 12.0513L293.195 12.0513L293.195 312.051L292.995 312.051Z" fill="black" fill-opacity="0.4"/>
<path fill-rule="evenodd" clip-rule="evenodd" d="M132.995 312.051L132.995 12.0513L133.195 12.0513L133.195 312.051L132.995 312.051Z" fill="black" fill-opacity="0.4"/>
<path fill-rule="evenodd" clip-rule="evenodd" d="M332.995 312.051L332.995 12.0513L333.195 12.0513L333.195 312.051L332.995 312.051Z" fill="black" fill-opacity="0.4"/>
<path fill-rule="evenodd" clip-rule="evenodd" d="M172.995 312.051L172.995 12.0513L173.195 12.0513L173.195 312.051L172.995 312.051Z" fill="black" fill-opacity="0.4"/>
<path fill-rule="evenodd" clip-rule="evenodd" d="M252.987 312.051L252.987 12.0513L253.188 12.0513L253.187 312.051L252.987 312.051Z" fill="black" fill-opacity="0.4"/>
</g>
<path opacity="0.4" fill-rule="evenodd" clip-rule="evenodd" d="M472.995 312.051L472.995 12.0513L473.195 12.0513L473.195 312.051L472.995 312.051Z" fill="black" fill-opacity="0.4"/>
<path opacity="0.4" fill-rule="evenodd" clip-rule="evenodd" d="M432.995 312.051L432.995 12.0513L433.195 12.0513L433.195 312.051L432.995 312.051Z" fill="black" fill-opacity="0.4"/>
<path opacity="0.4" fill-rule="evenodd" clip-rule="evenodd" d="M462.995 312.051L462.995 12.0513L463.195 12.0513L463.195 312.051L462.995 312.051Z" fill="black" fill-opacity="0.4"/>
<path opacity="0.4" fill-rule="evenodd" clip-rule="evenodd" d="M502.995 312.051L502.995 12.0513L503.195 12.0513L503.195 312.051L502.995 312.051Z" fill="black" fill-opacity="0.4"/>
<path opacity="0.4" fill-rule="evenodd" clip-rule="evenodd" d="M422.995 312.051L422.995 12.0513L423.195 12.0513L423.195 312.051L422.995 312.051Z" fill="black" fill-opacity="0.4"/>
<path opacity="0.4" fill-rule="evenodd" clip-rule="evenodd" d="M452.995 312.051L452.995 12.0513L453.195 12.0513L453.195 312.051L452.995 312.051Z" fill="black" fill-opacity="0.4"/>
<path opacity="0.4" fill-rule="evenodd" clip-rule="evenodd" d="M492.995 312.051L492.995 12.0513L493.195 12.0513L493.195 312.051L492.995 312.051Z" fill="black" fill-opacity="0.4"/>
<path opacity="0.4" fill-rule="evenodd" clip-rule="evenodd" d="M412.995 312.051L412.995 12.0513L413.195 12.0513L413.195 312.051L412.995 312.051Z" fill="black" fill-opacity="0.4"/>
<path opacity="0.4" fill-rule="evenodd" clip-rule="evenodd" d="M442.995 312.051L442.995 12.0513L443.195 12.0513L443.195 312.051L442.995 312.051Z" fill="black" fill-opacity="0.4"/>
<path opacity="0.4" fill-rule="evenodd" clip-rule="evenodd" d="M482.995 312.051L482.995 12.0513L483.195 12.0513L483.195 312.051L482.995 312.051Z" fill="black" fill-opacity="0.4"/>
</g>
<path d="M298 7.85107C298 3.98508 301.134 0.851074 305 0.851074H330C333.866 0.851074 337 3.98508 337 7.85107V12.8511C337 16.7171 333.866 19.8511 330 19.8511H305C301.134 19.8511 298 16.7171 298 12.8511V7.85107Z" fill="#CAFFA0"/>
<path fill-rule="evenodd" clip-rule="evenodd" d="M330 1.60107H305C301.548 1.60107 298.75 4.3993 298.75 7.85107V12.8511C298.75 16.3029 301.548 19.1011 305 19.1011H330C333.452 19.1011 336.25 16.3029 336.25 12.8511V7.85107C336.25 4.39929 333.452 1.60107 330 1.60107ZM305 0.851074C301.134 0.851074 298 3.98508 298 7.85107V12.8511C298 16.7171 301.134 19.8511 305 19.8511H330C333.866 19.8511 337 16.7171 337 12.8511V7.85107C337 3.98508 333.866 0.851074 330 0.851074H305Z" fill="#25311C"/>
<path d="M263.211 262.383C263.211 257.89 266.853 254.248 271.346 254.248H341.513C346.006 254.248 349.648 257.89 349.648 262.383C349.648 266.876 346.006 270.519 341.513 270.519H271.346C266.853 270.519 263.211 266.876 263.211 262.383Z" fill="white"/>
<path fill-rule="evenodd" clip-rule="evenodd" d="M341.513 255.011H271.346C267.274 255.011 263.974 258.312 263.974 262.383C263.974 266.455 267.274 269.756 271.346 269.756H341.513C345.585 269.756 348.885 266.455 348.885 262.383C348.885 258.312 345.585 255.011 341.513 255.011ZM271.346 254.248C266.853 254.248 263.211 257.89 263.211 262.383C263.211 266.876 266.853 270.519 271.346 270.519H341.513C346.006 270.519 349.648 266.876 349.648 262.383C349.648 257.89 346.006 254.248 341.513 254.248H271.346Z" fill="black"/>
<path d="M377.48 264.446C377.48 264.446 376.319 269.721 416.482 269.758C456.64 269.802 493.013 267.725 493.009 264.562C493.005 261.399 456.626 259.255 416.468 259.211C376.31 259.168 377.48 264.446 377.48 264.446Z" fill="white"/>
<path fill-rule="evenodd" clip-rule="evenodd" d="M492.833 264.446C492.833 264.446 493.993 269.721 453.83 269.758C413.672 269.802 377.299 267.725 377.304 264.562C377.308 261.399 413.687 259.255 453.845 259.211C494.002 259.168 492.833 264.446 492.833 264.446ZM492.059 264.479C492.034 264.525 491.978 264.607 491.86 264.719C491.475 265.087 490.507 265.705 488.187 266.354C483.562 267.648 473.898 268.977 453.829 268.996L453.829 268.996C433.761 269.017 414.646 268.509 400.555 267.602C393.506 267.148 387.733 266.595 383.731 265.961C381.724 265.644 380.197 265.311 379.186 264.972C378.738 264.822 378.427 264.682 378.229 264.562C378.427 264.441 378.74 264.3 379.19 264.149C380.203 263.808 381.731 263.472 383.738 263.151C387.742 262.51 393.517 261.946 400.567 261.478C414.661 260.543 433.777 259.996 453.845 259.974C473.911 259.952 483.571 261.262 488.193 262.547C490.511 263.192 491.478 263.808 491.861 264.174C491.978 264.285 492.034 264.367 492.059 264.412L492.052 264.446L492.059 264.479ZM378.026 264.717C378.027 264.717 378.029 264.715 378.032 264.71C378.028 264.715 378.026 264.717 378.026 264.717ZM378.031 264.415C378.028 264.41 378.026 264.408 378.026 264.408C378.026 264.408 378.027 264.41 378.031 264.415Z" fill="black"/>
<path fill-rule="evenodd" clip-rule="evenodd" d="M348.336 282.763L268 282.763L268 282L348.336 282L348.336 282.763Z" fill="black"/>
<path fill-rule="evenodd" clip-rule="evenodd" d="M489.982 283.099L380.156 283.099L380.156 282.336L489.982 282.336L489.982 283.099Z" fill="black"/>
<path d="M315.321 273H296V275.034H315.321V273Z" fill="black"/>
<path d="M442.321 274.582H423V276.616H442.321V274.582Z" fill="black"/>
<path fill-rule="evenodd" clip-rule="evenodd" d="M268.529 277L269.094 277.514L264.242 282.85L269.094 288.186L268.529 288.7L263.212 282.85L268.529 277Z" fill="black"/>
<path fill-rule="evenodd" clip-rule="evenodd" d="M382.42 276.616L382.984 277.129L378.133 282.465L382.984 287.802L382.42 288.315L377.102 282.465L382.42 276.616Z" fill="black"/>
<path fill-rule="evenodd" clip-rule="evenodd" d="M344.111 288.314L343.547 287.801L348.398 282.465L343.547 277.128L344.111 276.615L349.429 282.465L344.111 288.314Z" fill="black"/>
<path fill-rule="evenodd" clip-rule="evenodd" d="M487.494 288.314L486.93 287.801L491.781 282.465L486.93 277.128L487.494 276.615L492.812 282.465L487.494 288.314Z" fill="black"/>
<path d="M183.771 158.57C188.264 158.57 191.906 154.928 191.906 150.435L191.906 80.2684C191.906 75.7754 188.264 72.1331 183.771 72.1331C179.278 72.1331 175.636 75.7754 175.636 80.2684L175.636 150.435C175.636 154.928 179.278 158.57 183.771 158.57Z" fill="white"/>
<path fill-rule="evenodd" clip-rule="evenodd" d="M190.128 80.2684L190.128 150.435C190.128 154.507 186.827 157.808 182.755 157.808C178.684 157.808 175.383 154.507 175.383 150.435L175.383 80.2684C175.383 76.1966 178.684 72.8958 182.755 72.8958C186.827 72.8958 190.128 76.1966 190.128 80.2684ZM190.891 150.435C190.891 154.928 187.248 158.57 182.755 158.57C178.262 158.57 174.62 154.928 174.62 150.435L174.62 80.2684C174.62 75.7754 178.262 72.1331 182.755 72.1331C187.248 72.1331 190.891 75.7754 190.891 80.2684L190.891 150.435Z" fill="black"/>
<path d="M265.949 168.027C265.949 168.027 243.177 195.797 222.338 196.247C199.858 196.738 176.669 192.797 149.151 181.259C134.465 175.095 155.914 174.88 169.313 173.943C192.765 172.311 198.43 165.887 207.08 151.31C207.08 151.31 226.425 157.43 265.955 168.02L265.949 168.027Z" fill="white"/>
<path d="M265.919 58.4695C265.919 58.4695 242.086 31.7092 221.248 32.1595C198.767 32.6374 175.752 37.585 148.71 50.3097C134.279 57.102 155.716 56.3871 169.141 56.7449C192.635 57.3593 198.546 63.5231 207.751 77.723C207.751 77.723 226.845 70.7757 265.926 58.4759L265.919 58.4695Z" fill="white"/>
<path fill-rule="evenodd" clip-rule="evenodd" d="M265.143 167.802C265.405 167.873 265.669 167.943 265.933 168.014L265.936 168.015C265.942 168.017 265.949 168.018 265.955 168.02L265.949 168.027C265.949 168.027 265.763 168.253 265.411 168.664C261.857 172.813 241.298 195.837 222.338 196.247C199.858 196.738 176.669 192.797 149.151 181.259C136.356 175.889 150.989 175.034 163.831 174.283C165.729 174.172 167.588 174.064 169.313 173.943C192.765 172.311 198.43 165.887 207.08 151.31C207.08 151.31 226.16 157.347 265.143 167.802ZM207.428 152.218C207.527 152.249 207.638 152.284 207.763 152.322C208.37 152.511 209.282 152.792 210.499 153.162C212.933 153.902 216.589 154.998 221.48 156.426C231.07 159.225 245.408 163.296 264.594 168.445C264.519 168.531 264.439 168.622 264.355 168.719C263.697 169.473 262.733 170.552 261.51 171.85C259.063 174.445 255.587 177.909 251.466 181.385C243.183 188.372 232.457 195.265 222.322 195.484C199.955 195.973 176.871 192.054 149.446 180.555C147.629 179.793 146.427 179.144 145.71 178.604C145.352 178.334 145.152 178.118 145.051 177.962C145.003 177.887 144.984 177.836 144.977 177.809C144.971 177.786 144.973 177.776 144.973 177.776C144.973 177.776 144.976 177.761 144.994 177.733C145.014 177.702 145.051 177.656 145.12 177.597C145.262 177.474 145.494 177.333 145.843 177.184C146.539 176.888 147.554 176.623 148.836 176.391C152.648 175.701 158.368 175.367 163.825 175.048C165.736 174.936 167.614 174.826 169.367 174.704C181.144 173.884 188.58 171.855 194.171 168.114C199.624 164.467 203.235 159.245 207.428 152.218Z" fill="black"/>
<path fill-rule="evenodd" clip-rule="evenodd" d="M265.926 58.4759C265.92 58.4778 265.914 58.4797 265.908 58.4816C265.907 58.482 265.905 58.4823 265.904 58.4826C265.643 58.5648 265.384 58.6466 265.124 58.7283C226.584 70.8707 207.751 77.723 207.751 77.723C198.546 63.5231 192.635 57.3593 169.141 56.7449C167.407 56.6986 165.539 56.6703 163.633 56.6414C150.777 56.4466 136.143 56.2247 148.71 50.3097C175.752 37.585 198.767 32.6374 221.248 32.1595C240.206 31.7498 261.643 53.8617 265.357 57.8555C265.725 58.2516 265.919 58.4695 265.919 58.4695L265.926 58.4759ZM264.55 58.1095C245.581 64.0886 231.412 68.7778 221.938 71.9895C217.106 73.6276 213.496 74.8813 211.092 75.7257C209.891 76.1479 208.991 76.4678 208.391 76.6823C208.269 76.7261 208.159 76.7655 208.061 76.8005C203.601 69.9572 199.791 64.8961 194.201 61.4882C188.468 57.9932 180.959 56.291 169.161 55.9824C167.399 55.9355 165.513 55.9069 163.594 55.8778C158.135 55.7949 152.415 55.7081 148.583 55.1846C147.293 55.0083 146.269 54.7884 145.562 54.5225C145.208 54.3895 144.97 54.2584 144.824 54.1426C144.754 54.0866 144.715 54.042 144.694 54.0127C144.675 53.9858 144.673 53.9728 144.673 53.9717L144.673 53.9717C144.672 53.9704 144.672 53.9684 144.672 53.9646C144.672 53.9606 144.673 53.9523 144.675 53.9388C144.681 53.9113 144.698 53.8598 144.743 53.7825C144.838 53.6214 145.03 53.3967 145.378 53.1111C146.073 52.5402 147.249 51.8404 149.035 50.9998C175.986 38.3176 198.896 33.3975 221.264 32.922L221.264 32.922C231.399 32.703 242.383 39.1262 250.931 45.7485C255.183 49.0429 258.791 52.3533 261.337 54.8407C262.609 56.0839 263.614 57.1204 264.301 57.845C264.389 57.9385 264.472 58.0267 264.55 58.1095Z" fill="black"/>
<path fill-rule="evenodd" clip-rule="evenodd" d="M138.012 232.168L500.031 232.168L500.031 231.406L138.012 231.406L138.012 232.168Z" fill="black"/>
<path fill-rule="evenodd" clip-rule="evenodd" d="M500.033 31.4566L461.391 31.4566L461.391 32.2192L500.033 32.2192L500.033 31.4566Z" fill="black"/>
<path d="M455.165 74.4245C480.24 92.607 488.4 104.612 491.04 110.189C492.133 112.501 492.132 115.098 491.039 117.41C488.396 122.995 480.228 135.03 455.125 153.307C417.217 180.919 376.315 181.767 348.181 182.069C311.78 182.448 239.874 171.333 190.046 150.389L190.25 114.343L190.082 78.2984C239.935 57.1733 311.836 45.8037 348.24 46.0508C376.376 46.2414 417.278 46.9512 455.157 74.4171L455.165 74.4245Z" fill="white"/>
<path fill-rule="evenodd" clip-rule="evenodd" d="M454.67 75.0071L454.717 75.0414C479.738 93.184 487.786 105.098 490.35 110.515C491.346 112.62 491.345 114.978 490.349 117.083C487.782 122.509 479.724 134.453 454.676 152.69C416.981 180.146 376.304 181.004 348.173 181.306C311.98 181.682 240.515 170.655 190.812 149.882L191.013 114.339L190.847 78.8026C240.577 57.8486 312.038 46.5672 348.235 46.813C376.356 47.0035 417.011 47.723 454.662 74.9998L454.67 75.0071ZM455.157 74.4166C417.278 46.9507 376.376 46.241 348.24 46.0503C311.836 45.8032 239.935 57.1729 190.082 78.2979L190.25 114.342L190.046 150.389C239.874 171.333 311.78 182.447 348.181 182.068C376.315 181.767 417.217 180.918 455.125 153.306C480.228 135.03 488.396 122.994 491.039 117.409C492.132 115.098 492.133 112.5 491.04 110.189C488.4 104.611 480.24 92.6065 455.165 74.424L455.157 74.4166Z" fill="black"/>
<path fill-rule="evenodd" clip-rule="evenodd" d="M465.458 231.787L465.458 82.3018L464.695 82.3018L464.695 231.787L465.458 231.787Z" fill="black"/>
<path fill-rule="evenodd" clip-rule="evenodd" d="M421.731 231.788L421.731 56.8794L420.969 56.8794L420.969 231.788L421.731 231.788Z" fill="black"/>
<path fill-rule="evenodd" clip-rule="evenodd" d="M262.075 231.787L262.075 171.79L261.312 171.79L261.313 231.787L262.075 231.787Z" fill="black"/>
<path fill-rule="evenodd" clip-rule="evenodd" d="M144.114 231.787L144.114 171.79L143.352 171.79L143.352 231.787L144.114 231.787Z" fill="black"/>
<path d="M429.856 197.213H457.312V199.247H429.856V197.213Z" fill="black"/>
<path d="M184.79 201.28H221.398V203.314H184.79V201.28Z" fill="black"/>
<path d="M258.02 111.167C258.02 111.167 259.181 116.441 219.018 116.479C178.86 116.523 142.487 114.446 142.491 111.283C142.495 108.12 178.874 105.976 219.032 105.932C259.19 105.889 258.02 111.167 258.02 111.167Z" fill="white"/>
<path fill-rule="evenodd" clip-rule="evenodd" d="M258.02 111.167C258.02 111.167 259.181 116.441 219.018 116.479C178.86 116.523 142.487 114.446 142.491 111.283C142.495 108.12 178.874 105.976 219.032 105.932C259.19 105.889 258.02 111.167 258.02 111.167ZM257.247 111.2C257.221 111.246 257.165 111.328 257.047 111.44C256.662 111.807 255.694 112.425 253.375 113.074C248.749 114.368 239.086 115.698 219.017 115.716L219.017 115.716C198.949 115.738 179.833 115.23 165.743 114.322C158.694 113.868 152.92 113.315 148.919 112.682C146.912 112.364 145.385 112.032 144.373 111.693C143.925 111.543 143.614 111.403 143.416 111.283C143.615 111.162 143.927 111.021 144.377 110.87C145.39 110.529 146.918 110.193 148.926 109.872C152.929 109.231 158.704 108.667 165.755 108.199C179.848 107.263 198.965 106.717 219.033 106.695C239.099 106.673 248.759 107.983 253.381 109.268C255.699 109.912 256.665 110.528 257.049 110.895C257.166 111.006 257.221 111.087 257.247 111.133L257.239 111.166L257.247 111.2ZM143.214 111.438C143.214 111.438 143.216 111.436 143.219 111.431C143.215 111.435 143.214 111.438 143.214 111.438ZM143.219 111.136C143.216 111.131 143.214 111.128 143.213 111.128C143.213 111.128 143.215 111.131 143.219 111.136Z" fill="black"/>
<path d="M505.117 90.4381L505.117 148.402L503.083 148.402L503.083 90.4381L505.117 90.4381Z" fill="black"/>
<path d="M500.031 112.81L500.031 148.402L497.997 148.402L497.997 112.81L500.031 112.81Z" fill="black"/>
<path d="M331.226 197.212H362.75V199.246H331.226V197.212Z" fill="black"/>
<path d="M325.124 201.28H362.75V203.314H325.124V201.28Z" fill="black"/>
<path d="M437.991 201.28H457.312V203.314H437.991V201.28Z" fill="black"/>
<path d="M471.554 201.28H484.773V203.314H471.554V201.28Z" fill="black"/>
<path fill-rule="evenodd" clip-rule="evenodd" d="M469.53 212.338H488.852V211.576H469.53V212.338Z" fill="black"/>
<path fill-rule="evenodd" clip-rule="evenodd" d="M486.58 206.107L486.016 206.62L490.867 211.956L486.016 217.293L486.58 217.806L491.898 211.956L486.58 206.107Z" fill="black"/>
<path fill-rule="evenodd" clip-rule="evenodd" d="M472.022 218.062L472.586 217.549L467.735 212.212L472.586 206.876L472.022 206.363L466.704 212.212L472.022 218.062Z" fill="black"/>
<path fill-rule="evenodd" clip-rule="evenodd" d="M425.792 212.209L460.367 212.209L460.367 211.447L425.792 211.447L425.792 212.209Z" fill="black"/>
<path fill-rule="evenodd" clip-rule="evenodd" d="M458.096 206.362L457.531 206.875L462.383 212.211L457.531 217.548L458.096 218.061L463.413 212.211L458.096 206.362Z" fill="black"/>
<path fill-rule="evenodd" clip-rule="evenodd" d="M428.272 218.061L428.836 217.548L423.985 212.212L428.836 206.875L428.272 206.362L422.954 212.212L428.272 218.061Z" fill="black"/>
<path fill-rule="evenodd" clip-rule="evenodd" d="M266.146 212.209H416.648V211.446H266.146V212.209Z" fill="black"/>
<path fill-rule="evenodd" clip-rule="evenodd" d="M414.377 206.361L413.813 206.874L418.664 212.211L413.813 217.547L414.377 218.06L419.695 212.211L414.377 206.361Z" fill="black"/>
<path fill-rule="evenodd" clip-rule="evenodd" d="M268.631 218.061L269.195 217.548L264.344 212.211L269.195 206.875L268.631 206.362L263.313 212.211L268.631 218.061Z" fill="black"/>
<path fill-rule="evenodd" clip-rule="evenodd" d="M148.191 212.209L257 212.209L257 211.446L148.191 211.446L148.191 212.209Z" fill="black"/>
<path fill-rule="evenodd" clip-rule="evenodd" d="M254.728 206.361L254.164 206.874L259.015 212.211L254.164 217.547L254.728 218.06L260.046 212.211L254.728 206.361Z" fill="black"/>
<path fill-rule="evenodd" clip-rule="evenodd" d="M150.67 218.061L151.234 217.548L146.383 212.211L151.234 206.875L150.67 206.362L145.352 212.211L150.67 218.061Z" fill="black"/>
<path fill-rule="evenodd" clip-rule="evenodd" d="M493.927 226.703L493.927 36.541L493.164 36.541L493.164 226.703L493.927 226.703Z" fill="black"/>
<path fill-rule="evenodd" clip-rule="evenodd" d="M499.266 224.951L498.753 224.386L493.416 229.238L488.08 224.386L487.567 224.951L493.416 230.268L499.266 224.951Z" fill="black"/>
<path fill-rule="evenodd" clip-rule="evenodd" d="M499.266 38.2926L498.753 38.8569L493.416 34.0056L488.08 38.8569L487.567 38.2926L493.416 32.9749L499.266 38.2926Z" fill="black"/>
<path d="M166 312.851H174V390.851H166V312.851Z" fill="#25311C"/>
<path fill-rule="evenodd" clip-rule="evenodd" d="M173.25 313.601H166.75V390.101H173.25V313.601ZM166 312.851V390.851H174V312.851H166Z" fill="#25311C"/>
<path d="M454 312.851H462V390.851H454V312.851Z" fill="#25311C"/>
<path fill-rule="evenodd" clip-rule="evenodd" d="M461.25 313.601H454.75V390.101H461.25V313.601ZM454 312.851V390.851H462V312.851H454Z" fill="#25311C"/>
<path d="M170 312.851H178V390.851H170V312.851Z" fill="#F4F6F5"/>
<path fill-rule="evenodd" clip-rule="evenodd" d="M177.25 313.601H170.75V390.101H177.25V313.601ZM170 312.851V390.851H178V312.851H170Z" fill="#25311C"/>
<path d="M458 312.851H466V390.851H458V312.851Z" fill="#F4F6F5"/>
<path fill-rule="evenodd" clip-rule="evenodd" d="M465.25 313.601H458.75V390.101H465.25V313.601ZM458 312.851V390.851H466V312.851H458Z" fill="#25311C"/>
<path d="M125.019 241.008L131.586 241.053V243.82L125.741 243.078L125.019 241.008Z" fill="#25311C"/>
<path d="M125.034 241.668L160.438 256.716V298.625C160.438 303.822 157.99 308.717 153.83 311.836L125.042 333.426C125.042 333.426 125.034 333.426 125.03 333.426L96.2424 311.836C92.0818 308.717 89.6347 303.822 89.6347 298.625V256.716L125.038 241.668H125.034Z" fill="#25311C"/>
<path d="M125.033 334.208L125.418 333.909L154.193 312.328C158.485 309.11 161.047 303.986 161.047 298.624V256.306L160.674 256.146L125.033 241L124.791 241.102L89.0144 256.306V298.624C89.0144 303.986 91.5762 309.11 95.868 312.328L125.037 334.204L125.033 334.208ZM159.813 257.122V298.624C159.813 303.601 157.436 308.36 153.451 311.344L125.024 332.663L96.5976 311.344C92.6133 308.356 90.2359 303.601 90.2359 298.624V257.122L125.024 242.336L159.813 257.122Z" fill="#25311C"/>
<path d="M125.019 334H131.586L131.567 330.421H124.021L125.019 334Z" fill="#25311C"/>
<path d="M131.612 241.669L167.016 256.717V298.58C167.016 303.806 164.556 308.729 160.371 311.865L131.612 333.434L102.853 311.865C98.6722 308.729 96.2087 303.806 96.2087 298.58V256.717L131.612 241.669V241.669Z" fill="#CAFFA0"/>
<path d="M131.607 334.204L160.735 312.36C165.047 309.126 167.625 303.973 167.625 298.583V256.314L167.252 256.154L131.611 241.008L131.369 241.11L95.5925 256.314V298.583C95.5925 303.977 98.1667 309.126 102.483 312.36L131.611 334.204H131.607ZM166.395 257.121V298.579C166.395 303.588 164.006 308.367 159.997 311.372L131.607 332.663L103.217 311.372C99.2119 308.367 96.8181 303.584 96.8181 298.579V257.121L131.607 242.336L166.395 257.121V257.121Z" fill="#25311C"/>
<path d="M123.711 314.998L123.751 286.159C116.012 284.774 110.148 278.016 110.159 269.873C110.173 260.72 117.602 253.289 126.756 253.276C135.91 253.264 143.319 260.673 143.307 269.827C143.296 277.97 137.413 284.745 129.67 286.151L129.649 301.731L136.857 301.721C137.422 301.72 137.879 302.177 137.879 302.743L137.874 305.432C137.873 305.998 137.415 306.456 136.85 306.457L129.642 306.467L129.636 311.203L136.843 311.193C137.408 311.192 137.866 311.649 137.866 312.215L137.861 314.904C137.86 315.469 137.402 315.928 136.837 315.929L128.682 315.94L127.83 315.941L124.657 315.945C124.135 315.945 123.71 315.523 123.711 315L123.711 314.998ZM135.849 269.792C135.855 264.757 131.781 260.682 126.746 260.689C121.711 260.696 117.624 264.783 117.618 269.817C117.611 274.852 121.686 278.927 126.72 278.92C131.755 278.913 135.842 274.826 135.849 269.792V269.792Z" fill="#25311C"/>
<path fill-rule="evenodd" clip-rule="evenodd" d="M123.711 315L123.711 314.998L123.751 286.159C116.012 284.774 110.148 278.016 110.159 269.873C110.173 260.72 117.602 253.289 126.756 253.276C135.91 253.264 143.319 260.673 143.307 269.827C143.296 277.97 137.413 284.745 129.67 286.151L129.649 301.731L136.857 301.721C137.422 301.72 137.879 302.177 137.879 302.743L137.874 305.432C137.873 305.998 137.415 306.456 136.85 306.457L129.643 306.467L129.636 311.202L136.843 311.193C137.408 311.192 137.866 311.649 137.866 312.215L137.861 314.904C137.86 315.469 137.402 315.928 136.837 315.929L124.657 315.945C124.135 315.945 123.71 315.523 123.711 315ZM128.682 315.264L127.829 315.265L124.657 315.269C124.657 315.269 124.657 315.269 124.657 315.269C124.507 315.269 124.387 315.148 124.388 315.002L124.388 315L124.388 314.999L124.388 314.998L124.429 285.593L123.871 285.493C116.448 284.165 110.825 277.683 110.836 269.874C110.848 261.094 117.976 253.964 126.757 253.953C135.537 253.941 142.643 261.047 142.631 269.826C142.62 277.636 136.977 284.137 129.549 285.486L128.995 285.586L128.972 302.408L136.858 302.397C137.047 302.397 137.203 302.55 137.203 302.743L137.198 305.431C137.198 305.624 137.041 305.78 136.849 305.781L128.967 305.792L128.958 311.88L136.844 311.869C137.034 311.869 137.189 312.021 137.189 312.214M137.189 312.215L137.185 314.903C137.184 315.096 137.028 315.252 136.835 315.252L128.682 315.264M136.525 269.793C136.532 264.384 132.154 260.005 126.745 260.013C121.338 260.02 116.948 264.409 116.941 269.816C116.934 275.225 121.312 279.604 126.721 279.596C132.129 279.589 136.518 275.2 136.525 269.793ZM126.746 260.689C131.781 260.682 135.855 264.757 135.849 269.792C135.842 274.826 131.755 278.913 126.72 278.92C121.686 278.927 117.611 274.852 117.618 269.817C117.624 264.783 121.711 260.696 126.746 260.689Z" fill="#25311C"/>
<path d="M127.313 314.998L127.353 286.159C119.614 284.774 113.75 278.016 113.761 269.873C113.774 260.72 121.204 253.289 130.358 253.276C139.512 253.264 146.921 260.673 146.909 269.827C146.898 277.97 141.014 284.745 133.272 286.151L133.251 301.731L140.458 301.721C141.023 301.72 141.48 302.177 141.48 302.743L141.476 305.432C141.475 305.998 141.017 306.456 140.451 306.457L133.244 306.467L133.237 311.203L140.445 311.193C141.01 311.192 141.467 311.649 141.467 312.215L141.463 314.904C141.462 315.469 141.003 315.928 140.438 315.929L132.284 315.94L131.431 315.941L128.258 315.945C127.737 315.945 127.312 315.523 127.313 315L127.313 314.998ZM139.45 269.792C139.457 264.757 135.382 260.682 130.348 260.689C125.313 260.696 121.226 264.783 121.219 269.817C121.212 274.852 125.287 278.927 130.322 278.92C135.357 278.913 139.444 274.826 139.45 269.792V269.792Z" fill="white"/>
<path fill-rule="evenodd" clip-rule="evenodd" d="M127.313 315L127.313 314.998L127.353 286.159C119.614 284.774 113.75 278.016 113.761 269.873C113.774 260.72 121.204 253.289 130.358 253.276C139.512 253.264 146.921 260.673 146.909 269.827C146.898 277.97 141.014 284.745 133.272 286.151L133.251 301.731L140.458 301.721C141.023 301.72 141.48 302.177 141.48 302.743L141.476 305.432C141.475 305.998 141.017 306.456 140.451 306.457L133.244 306.467L133.237 311.202L140.445 311.193C141.01 311.192 141.467 311.649 141.467 312.215L141.463 314.904C141.462 315.469 141.003 315.928 140.438 315.929L128.258 315.945C127.737 315.945 127.312 315.523 127.313 315ZM132.283 315.264L131.43 315.265L128.258 315.269C128.258 315.269 128.258 315.269 128.258 315.269C128.109 315.269 127.989 315.148 127.989 315.002L127.989 315L127.989 314.999L127.989 314.998L128.03 285.593L127.472 285.493C120.05 284.165 114.426 277.683 114.437 269.874C114.45 261.094 121.577 253.964 130.358 253.953C139.138 253.941 146.244 261.047 146.232 269.826C146.222 277.636 140.578 284.137 133.151 285.486L132.596 285.586L132.573 302.408L140.459 302.397C140.649 302.397 140.804 302.55 140.804 302.743L140.8 305.431C140.799 305.624 140.643 305.78 140.45 305.781L132.569 305.792L132.56 311.88L140.446 311.869C140.635 311.869 140.79 312.021 140.791 312.214M140.791 312.215L140.786 314.903C140.786 315.096 140.629 315.252 140.437 315.252L132.283 315.264M140.127 269.793C140.134 264.384 135.756 260.005 130.347 260.013C124.939 260.02 120.55 264.409 120.543 269.816C120.536 275.225 124.914 279.604 130.323 279.596C135.73 279.589 140.119 275.2 140.127 269.793ZM130.348 260.689C135.382 260.682 139.457 264.757 139.45 269.792C139.444 274.826 135.357 278.913 130.322 278.92C125.287 278.927 121.212 274.852 121.219 269.817C121.226 264.783 125.313 260.696 130.348 260.689Z" fill="#25311C"/>
<path d="M396.45 387.635C388.906 387.635 383 386.027 383 383.975C383 381.923 388.909 380.315 396.45 380.315C403.99 380.315 409.899 381.923 409.899 383.975C409.899 386.027 403.99 387.635 396.45 387.635ZM396.45 381.051C390.619 381.051 384.122 382.252 384.122 383.975C384.122 385.698 390.619 386.899 396.45 386.899C402.28 386.899 408.777 385.698 408.777 383.975C408.777 382.252 402.28 381.051 396.45 381.051Z" fill="#25311C"/>
<path d="M493.684 360.797C486.14 360.797 480.234 358.831 480.234 356.324C480.234 353.816 486.144 351.851 493.684 351.851C501.224 351.851 507.133 353.816 507.133 356.324C507.133 358.831 501.224 360.797 493.684 360.797ZM493.684 352.749C487.853 352.749 481.356 354.217 481.356 356.324C481.356 358.43 487.853 359.898 493.684 359.898C499.515 359.898 506.011 358.43 506.011 356.324C506.011 354.217 499.515 352.749 493.684 352.749Z" fill="#25311C"/>
<path d="M237.176 370.596C241.385 370.596 244.797 369.829 244.797 368.883C244.797 367.937 241.385 367.17 237.176 367.17C232.967 367.17 229.555 367.937 229.555 368.883C229.555 369.829 232.967 370.596 237.176 370.596Z" fill="#25311C"/>
<path d="M237.177 370.917C233.213 370.917 229 370.206 229 368.884C229 367.562 233.213 366.851 237.177 366.851C241.141 366.851 245.354 367.562 245.354 368.884C245.354 370.206 241.141 370.917 237.177 370.917ZM237.177 367.493C232.801 367.493 230.112 368.303 230.112 368.886C230.112 369.469 232.798 370.278 237.177 370.278C241.556 370.278 244.243 369.467 244.243 368.886C244.243 368.305 241.556 367.493 237.177 367.493Z" fill="#25311C"/>
<defs>
<clipPath id="clip0_6415_28103">
<rect x="122" y="14.8511" width="393" height="294" rx="24" fill="white"/>
</clipPath>
</defs>
</svg>
